<svg xmlns="http://www.w3.org/2000/svg" xmlns:xlink="http://www.w3.org/1999/xlink" width="20" height="13.871" viewBox="0 0 20 13.871"><defs><style>.a{fill:none;}.b{clip-path:url(#a);}.c{opacity:0.9;}.d{fill:#fff;}</style><clipPath id="a"><rect class="a" width="20" height="13.871"/></clipPath></defs><g class="b"><g class="c"><path class="d" d="M115.285,158.417H100.809a.809.809,0,0,1,0-1.617h14.477a.809.809,0,0,1,0,1.617Z" transform="translate(-96.094 -150.675)"/><path class="d" d="M19.191,1.617H.809A.809.809,0,0,1,.809,0H19.191a.809.809,0,0,1,0,1.617Z"/><path class="d" d="M220.988,315.317h-10.18a.809.809,0,0,1,0-1.617h10.18a.809.809,0,0,1,0,1.617Z" transform="translate(-201.797 -301.446)"/></g></g></svg>